# xmcd CD database file
#
# Track frame offsets:
#	150
#	26040
#	35840
#	47790
#	60060
#	71043
#	83908
#	97954
#	111648
#	128063
#	138515
#	150254
#	169187
#	194831
#	205139
#	225644
#	235426
#	255154
#
# Disc length: 3703 seconds
#
# Revision: 0
# Processed by: cddbd v1.5.2PL0 Copyright (c) Steve Scherf et al.
# Submitted via: CDex 1.70beta2
#
DISCID=f90e7512
DTITLE=Carmen/Maloney/Richardson - Spellbound
DYEAR=1998
DGENRE=New Age
TTITLE0=Lover is Forever
TTITLE1=Angelus Cantus
TTITLE2=Adagio
TTITLE3=Silent Encounters
TTITLE4=Beloved
TTITLE5=Wild One
TTITLE6=The First Time
TTITLE7=Nightwing
TTITLE8=Poem for the Lost
TTITLE9=Eternally Yours
TTITLE10=A Face to Die For
TTITLE11=Without You
TTITLE12=The Crusader´s Lament
TTITLE13=Catacomb Chant
TTITLE14=Dark Hearts
TTITLE15=Sempiternum
TTITLE16=All, or Nothing at all
TTITLE17=Too Late to Love
EXTD=YEAR: 1998
EXTT0=
EXTT1=
EXTT2=
EXTT3=
EXTT4=
EXTT5=
EXTT6=
EXTT7=
EXTT8=
EXTT9=
EXTT10=
EXTT11=
EXTT12=
EXTT13=
EXTT14=
EXTT15=
EXTT16=
EXTT17=
PLAYORDER=
